<svg width="50" height="50" viewBox="0 0 50 50" fill="none" xmlns="http://www.w3.org/2000/svg">
<path d="M43.75 9.04167C43.4375 8.79341 43.0717 8.62095 42.6813 8.53781C42.2909 8.45467 41.8866 8.46312 41.5 8.5625L27.0833 12.2708V42L42.8333 37.9583C43.3967 37.8141 43.8955 37.4856 44.2504 37.0249C44.6053 36.5643 44.7959 35.9981 44.7917 35.4167V11.0833C44.7853 10.6861 44.6881 10.2956 44.5075 9.94174C44.327 9.58786 44.0679 9.27998 43.75 9.04167ZM22.9167 12.2708L8.45833 8.5625C8.0777 8.47436 7.68226 8.47162 7.30044 8.55447C6.91862 8.63732 6.55988 8.8037 6.25 9.04167C5.93423 9.28854 5.67971 9.60498 5.50626 9.96634C5.33281 10.3277 5.24511 10.7242 5.25 11.125V35.4167C5.25044 35.9946 5.4431 36.5559 5.79765 37.0123C6.15219 37.4687 6.64847 37.7942 7.20833 37.9375L22.9167 42V12.2708Z" fill="#ECECE2"/>
</svg>
